<svg width="128" height="50" viewBox="0 0 128 50" fill="none" xmlns="http://www.w3.org/2000/svg">
<g clip-path="url(#clip0_226_881)">
<path d="M64.6481 30.9261C72.285 30.9261 78.476 24.7377 78.476 17.1041C78.476 9.47041 72.285 3.2821 64.6481 3.2821C57.0112 3.2821 50.8203 9.47041 50.8203 17.1041C50.8203 24.7377 57.0112 30.9261 64.6481 30.9261Z" fill="#FF914D"/>
<path d="M128 47.7846C127.469 47.8537 127.287 47.5575 127.052 47.111C126.583 46.2197 125.974 45.4155 125.08 44.8497C124.433 44.4391 123.861 43.9093 123.255 43.4343C122.889 43.1467 122.508 43.1287 122.159 43.4343C121.803 43.7456 121.424 44.0332 121.314 44.5621C121.278 44.7343 120.958 44.9632 120.771 44.9614C120.493 44.9585 120.161 44.8346 119.954 44.6501C119.592 44.3275 119.307 43.9187 118.991 43.545C118.636 43.1259 118.3 42.6888 117.923 42.2914C117.651 42.0057 117.324 41.7729 117.024 41.5118C116.873 41.3793 116.658 41.2639 116.596 41.0955C116.294 40.2884 115.579 39.84 115.049 39.2326C114.912 39.0746 114.839 38.8607 114.705 38.6989C114.405 38.3385 114.068 38.0092 113.779 37.6412C113.098 36.7698 112.432 35.8871 111.77 35.0015C111.455 34.5795 111.171 34.1348 110.858 33.711C110.486 33.2067 110.09 32.7194 109.721 32.2132C109.616 32.0694 109.573 31.8821 109.487 31.7231C109.351 31.4724 109.212 31.2217 109.055 30.9823C108.52 30.1687 107.976 29.3597 107.436 28.5489C107.091 28.0285 106.722 27.5214 106.408 26.9821C105.964 26.2195 105.573 25.4267 105.137 24.6594C104.912 24.2629 104.608 23.911 104.389 23.5117C103.945 22.6999 103.532 21.8711 103.112 21.0461C102.567 19.9741 102.042 18.8918 101.482 17.8274C101.146 17.1887 100.853 16.5406 100.589 15.866C100.274 15.0618 99.7863 14.3276 99.3982 13.5499C99.2562 13.2651 99.1928 12.9416 99.0821 12.6388C98.9609 12.3077 98.8265 11.9812 98.6978 11.6529C98.6334 11.6671 98.57 11.6813 98.5056 11.6955C98.5056 11.986 98.4877 12.2783 98.5113 12.5669C98.5312 12.811 98.5975 13.0513 98.6429 13.2935C98.818 14.2273 98.9581 15.1687 99.1786 16.0922C99.402 17.0288 99.7002 17.9475 99.9765 18.8709C100.095 19.2645 100.257 19.6449 100.37 20.0404C100.505 20.5096 100.597 20.9912 100.727 21.4624C100.856 21.9317 101 22.3981 101.153 22.8598C101.382 23.5514 101.622 24.2402 101.863 24.9281C102.212 25.9253 102.546 26.9282 102.927 27.914C103.229 28.6965 103.712 29.4288 103.889 30.233C104.075 31.0769 104.417 31.8471 104.675 32.6541C104.719 32.7904 104.604 33.0023 104.508 33.1423C104.481 33.1802 104.226 33.1206 104.129 33.0411C103.682 32.6749 103.254 32.2851 102.819 31.9039C102.784 31.8736 102.735 31.8547 102.708 31.8196C101.995 30.8537 101.287 29.8839 100.574 28.9188C100.187 28.3956 99.7645 27.8951 99.4048 27.3539C99.19 27.0294 99.0953 26.6273 98.8956 26.2895C98.1479 25.0255 97.3859 23.77 96.6097 22.523C96.5094 22.3622 96.2964 22.2704 96.0399 22.0717C96.021 22.3849 95.9727 22.5731 96.0049 22.7453C96.234 23.9753 96.339 25.2308 96.8814 26.3955C97.1161 26.8998 97.1672 27.4873 97.3225 28.0304C97.4607 28.5139 97.6273 28.9888 97.7797 29.4676C97.9415 29.9728 98.1185 30.4752 98.2576 30.9871C98.3343 31.269 98.2501 31.567 97.9302 31.5983C97.7598 31.6153 97.543 31.4384 97.3906 31.3021C97.1284 31.0656 96.8871 30.8026 96.659 30.532C95.9538 29.6984 95.2619 28.8535 94.5567 28.02C94.4119 27.8487 94.2311 27.7097 94.0172 27.5081C93.9689 27.6718 93.9225 27.7551 93.9235 27.8383C93.9263 28.6719 93.8733 29.512 93.9623 30.3371C94.0674 31.3116 94.286 32.2757 94.4753 33.2407C94.6552 34.1585 94.8558 35.0724 95.0584 35.9854C95.2931 37.0451 95.5051 38.1067 95.9368 39.119C96.2766 39.9166 96.4886 40.7672 96.7744 41.5884C96.8445 41.7899 97.0215 41.9565 97.0783 42.158C97.1493 42.4115 97.2534 42.6831 96.9212 42.8997C96.5672 43.1297 96.3968 42.9111 96.233 42.6878C95.9188 42.2602 95.6462 41.8003 95.3262 41.3774C94.8681 40.7729 94.3731 40.1948 93.9131 39.5911C93.7891 39.4284 93.756 39.1966 93.6357 39.0291C93.2609 38.5059 92.8303 38.0196 92.4857 37.4784C92.0096 36.731 91.5941 35.9448 91.1502 35.1765C90.9637 34.8539 90.7356 34.5502 90.587 34.2115C90.4223 33.8368 90.3731 33.4072 90.1913 33.0439C89.773 32.2104 89.3044 31.4015 88.8529 30.584C88.834 30.5499 88.7829 30.5339 88.6826 30.4638C88.5983 30.8858 88.4677 31.2681 88.4545 31.6541C88.4194 32.6759 88.4251 33.6996 88.4374 34.7224C88.4422 35.1216 88.2945 35.3497 87.8884 35.274C87.3016 35.1652 86.7128 35.0431 86.1459 34.8614C85.3025 34.5918 84.4762 34.2682 83.647 33.9579C83.4331 33.8775 83.2381 33.7479 83.0242 33.6655C82.8964 33.6163 82.7507 33.6135 82.6134 33.5899C82.5879 33.6315 82.5633 33.6731 82.5377 33.7147C82.8482 34.0289 83.1444 34.3591 83.4719 34.6542C83.9897 35.1207 84.5538 35.52 84.8936 36.1766C85.0952 36.5664 85.5335 36.8275 85.807 37.1899C86.3418 37.8985 86.8368 38.6374 87.347 39.365C87.6471 39.7927 87.9831 40.1995 88.2339 40.6546C88.7081 41.5165 89.1407 42.4011 89.5723 43.2858C89.8307 43.8165 90.0825 44.3549 90.2756 44.9112C90.3314 45.0721 90.1705 45.3076 90.109 45.5082C90.0484 45.5158 89.9878 45.5234 89.9263 45.53C89.6215 45.1354 89.2259 44.7806 89.0309 44.3379C88.7129 43.6141 88.1383 43.1183 87.6461 42.5554C86.6996 41.472 85.5657 40.5855 84.3759 39.7927C83.3972 39.1408 82.3408 38.6034 81.3025 38.0442C81.0554 37.9108 80.7289 37.9316 80.4639 37.8238C79.5211 37.4378 78.6049 36.9779 77.6451 36.643C77.0034 36.4188 76.3029 36.362 75.6299 36.2229C75.3611 36.1671 75.098 36.0848 74.8292 36.028C73.9167 35.8369 73.0071 35.624 72.0871 35.4717C71.1226 35.3128 70.1429 35.2484 69.1803 35.0819C67.0042 34.7044 64.8149 34.974 62.6332 34.9192C61.8882 34.9002 61.1376 35.0157 60.3937 35.098C59.3752 35.2096 58.3558 35.3241 57.343 35.4821C56.3246 35.6411 55.3156 35.8615 54.2999 36.0394C53.5067 36.1775 52.7041 36.2617 51.9166 36.4263C51.3345 36.5474 50.7722 36.7651 50.1977 36.9259C49.6496 37.0792 49.0978 37.2192 48.546 37.3573C47.5256 37.6137 46.4901 37.8219 45.4859 38.1332C44.7088 38.3744 43.9799 38.7623 43.2142 39.0471C42.2998 39.3868 41.3618 39.6621 40.4503 40.0084C39.9004 40.2165 39.3864 40.5183 38.846 40.7558C38.1654 41.0557 37.4565 41.2961 36.7939 41.631C35.8918 42.088 35.0286 42.6197 34.137 43.0956C33.9278 43.2072 33.6401 43.177 33.4366 43.2952C32.596 43.7834 31.7811 44.3152 30.9406 44.8034C30.631 44.9831 30.2591 45.056 29.9458 45.231C29.3125 45.5849 28.7049 45.986 28.0754 46.3474C27.7053 46.5603 27.304 46.7193 26.9348 46.9321C26.3518 47.269 25.7971 47.654 25.2074 47.9776C24.5004 48.3655 23.764 48.7014 23.0494 49.078C22.5874 49.3221 22.1625 49.6485 21.6835 49.8462C21.356 49.9815 20.9604 50.0118 20.6007 49.9919C20.2931 49.9749 20.3915 49.7213 20.4786 49.5274C20.9604 48.4516 21.7356 47.602 22.5657 46.7902C22.861 46.5017 23.1005 46.1544 23.4081 45.8819C24.1208 45.2509 24.8449 44.6312 25.5917 44.0417C26.366 43.4305 27.1601 42.8401 27.9722 42.281C28.3045 42.053 28.7134 41.9385 29.0768 41.753C29.2368 41.6717 29.3646 41.5298 29.5198 41.4351C30.3442 40.9327 31.1195 40.2742 32.0139 39.9819C32.9576 39.6725 33.7243 39.0859 34.6207 38.7264C35.6382 38.3186 36.6387 37.8682 37.641 37.4226C38.014 37.257 38.3576 37.0215 38.7371 36.8748C39.3003 36.6562 39.8862 36.4982 40.4551 36.2948C41.0305 36.0895 41.5909 35.8388 42.1702 35.6448C43.0864 35.3383 44.0131 35.062 44.934 34.7716C45.6742 34.5388 46.4135 34.3004 47.1565 34.0733C47.289 34.0326 47.4433 34.0572 47.5701 34.008C47.6506 33.9768 47.6988 33.8642 47.7613 33.7876C47.6932 33.7337 47.6278 33.6372 47.5569 33.6343C47.2426 33.6201 46.9265 33.6173 46.6132 33.64C46.2582 33.6665 45.9042 33.7214 45.5512 33.7687C44.6766 33.8869 43.801 33.9986 42.9283 34.131C42.1228 34.2531 41.3183 34.3865 40.5185 34.5426C40.2071 34.6041 39.9004 34.7205 39.6089 34.8501C39.2198 35.0223 38.863 35.1557 38.6084 34.5691C38.8933 34.3288 39.253 34.1017 39.5123 33.7923C40.0679 33.1281 40.9312 32.9995 41.5909 32.5179C42.2024 32.0713 42.8432 31.6588 43.5 31.2832C43.9591 31.0211 44.5128 30.9114 44.9473 30.62C46.1371 29.8233 47.4054 29.1137 48.3188 27.9689C48.741 27.44 49.1243 26.8809 49.5323 26.3406C49.679 26.1467 49.8456 25.9669 50.0027 25.7815L49.9175 25.6329C49.5114 25.7947 49.0817 25.9139 48.7059 26.1277C48.0443 26.5034 47.4291 26.9594 46.7703 27.3397C46.1778 27.6813 45.5625 27.9926 44.9331 28.2603C44.757 28.3351 44.4958 28.213 44.2743 28.1808C44.3273 28.0001 44.3538 27.8062 44.4381 27.6415C44.6804 27.1647 44.917 26.6803 45.2114 26.2365C45.4963 25.808 45.8323 25.4077 46.1797 25.0255C46.8025 24.3396 47.0609 23.4634 47.465 22.664C47.519 22.558 47.5815 22.4568 47.6392 22.3527C47.6127 22.3054 47.5862 22.2571 47.5606 22.2098C47.3089 22.3262 47.0325 22.4085 46.8082 22.5656C45.8966 23.2052 44.9918 23.8551 44.1039 24.5269C43.7726 24.7776 43.5095 25.1163 43.1905 25.3869C42.9823 25.5639 42.7324 25.6954 42.4977 25.8392C42.1238 26.0681 41.7253 26.2195 41.4735 26.6576C41.2795 26.9963 40.9047 27.3095 40.5393 27.4552C39.9685 27.6832 39.6647 28.1506 39.2634 28.5375C38.9974 28.7939 38.6832 28.9992 38.4115 29.2509C38.0253 29.6085 37.6789 30.0116 37.2795 30.3522C36.4617 31.0486 35.7641 31.8518 35.0892 32.6806C34.7068 33.1508 34.3216 33.6211 33.9098 34.0648C33.7887 34.1963 33.5009 34.3534 33.4157 34.2994C33.2548 34.1982 33.0702 33.9295 33.1005 33.7696C33.199 33.2521 33.3391 32.7289 33.5596 32.252C33.8738 31.5727 34.313 30.9502 34.6254 30.2699C35.0409 29.3682 35.7319 28.6709 36.3026 27.8866C36.8336 27.1562 37.446 26.4844 38.0026 25.7711C38.1455 25.5875 38.1739 25.3141 38.3197 25.1343C39.2823 23.9469 39.9657 22.5921 40.703 21.2675C40.9312 20.8569 41.2217 20.4803 41.4688 20.0791C41.5199 19.9959 41.5019 19.871 41.5161 19.765C41.4016 19.7896 41.2691 19.7858 41.1754 19.8436C40.9179 20.0035 40.687 20.205 40.4267 20.3601C40.2714 20.4529 40.0859 20.5276 39.907 20.5437C39.4177 20.5882 39.3741 20.485 39.4773 20.0054C39.641 19.2428 39.7442 18.4688 39.8957 17.7034C39.961 17.3761 40.0859 17.0601 40.1777 16.7374C40.2118 16.6163 40.2288 16.4905 40.2534 16.3675C40.2118 16.3457 40.1702 16.323 40.1285 16.3013C40.0253 16.4148 39.9118 16.5208 39.8209 16.6438C39.2407 17.429 38.6595 18.2143 38.0944 19.01C37.9505 19.2134 37.8871 19.4736 37.7461 19.6799C37.5322 19.9931 37.2813 20.2826 37.0476 20.5825C36.8412 20.8465 36.544 21.083 36.4503 21.382C36.2051 22.1635 35.5265 22.6025 35.0977 23.2345C34.5714 24.0113 34.0225 24.7899 33.376 25.4655C32.702 26.1703 32.2789 27.0918 31.3807 27.616C31.022 27.8251 30.8497 28.337 30.5591 28.6813C30.3745 28.8999 30.1228 29.0598 29.9098 29.2556C29.6826 29.4638 29.4725 29.6909 29.2415 29.8943C28.8289 30.2585 28.4058 30.6124 27.9864 30.9691C27.9155 31.0296 27.8293 31.075 27.7697 31.1441C27.0191 32.0136 26.1066 32.6702 25.1156 33.2445C24.5789 33.5558 24.1407 34.0364 23.6021 34.3439C22.6584 34.8842 21.6797 35.3667 20.7001 35.8426C20.2543 36.0592 19.7781 36.2201 19.303 36.3658C19.2027 36.397 18.9963 36.2844 18.9263 36.1794C18.612 35.7082 18.329 35.2153 17.9883 34.6542C17.7034 35.0242 17.3049 35.3373 17.2074 35.7253C17.1089 36.116 16.8373 36.3052 16.6338 36.5522C15.4989 37.9335 14.3101 39.2695 12.9073 40.3944C11.8652 41.2298 10.8155 42.0558 9.76104 42.8761C9.58309 43.0152 9.35971 43.0937 9.16851 43.2176C8.73595 43.4986 8.32232 43.8118 7.8784 44.0739C7.0729 44.5488 6.24847 44.9926 5.43635 45.4571C4.88642 45.7722 4.35352 46.1185 3.79602 46.4203C3.05773 46.8196 2.27873 47.1479 1.566 47.585C1.20726 47.8054 0.880711 48.0164 0.463292 47.918C0.29197 47.8773 0.100771 47.7401 0.0155837 47.5916C-0.0355289 47.5027 0.0666962 47.2746 0.163242 47.1649C0.288184 47.023 0.480329 46.9416 0.637453 46.8252C1.06623 46.5073 1.47418 46.1582 1.92095 45.8696C2.81636 45.2916 3.77046 44.7986 4.62896 44.1732C5.51586 43.5261 6.32609 42.7739 7.15335 42.0482C7.91626 41.3803 8.6006 40.6063 9.42691 40.033C9.99294 39.6403 10.2362 39.049 10.6915 38.6081C10.8637 38.4416 11.0672 38.3054 11.2319 38.1322C11.4705 37.8815 11.6986 37.6185 11.9078 37.3422C12.0564 37.1473 12.1217 36.8691 12.3015 36.7215C13.2651 35.9277 13.815 34.8274 14.5117 33.8349C14.7417 33.5075 15.0162 33.2095 15.2197 32.867C15.4052 32.5557 15.4979 32.1896 15.6759 31.8726C15.9428 31.3967 16.2296 30.9293 16.5552 30.4922C16.6158 30.4109 16.9632 30.4203 17.0654 30.5121C17.5746 30.9681 18.0498 31.4611 18.5278 31.9512C18.772 32.2009 18.984 32.4819 19.2311 32.7289C19.4308 32.9285 19.6608 32.9768 19.8898 32.7459C20.1975 32.4346 20.5041 32.1205 20.825 31.8225C21.0531 31.6106 21.2737 31.356 21.5491 31.2368C22.0735 31.0088 22.4029 30.6332 22.6982 30.163C22.8705 29.8886 23.1866 29.706 23.4346 29.477C23.7384 29.196 24.0423 28.915 24.3395 28.6274C24.6376 28.3388 24.9443 28.0569 25.2188 27.7466C25.5151 27.4126 25.7782 27.0512 26.0555 26.7002C26.1767 26.5469 26.2817 26.3804 26.4152 26.2403C26.7948 25.8458 27.2661 25.5137 27.5548 25.0633C28.2155 24.034 29.1261 23.208 29.7934 22.1871C30.0963 21.7245 30.4796 21.3148 30.808 20.8682C31.0892 20.486 31.3315 20.0754 31.6145 19.695C32.0404 19.1217 32.4948 18.571 32.9207 17.9986C33.4612 17.271 33.9922 16.535 34.5137 15.7932C34.8639 15.2955 35.1801 14.7733 35.5322 14.2765C35.7792 13.9284 36.0764 13.6162 36.3206 13.267C36.4834 13.0343 36.5667 12.7476 36.7295 12.5158C36.952 12.1979 37.2321 11.9207 37.4584 11.6056C38.0196 10.8251 38.5563 10.0275 39.1176 9.24693C39.5909 8.58843 40.0736 7.9356 40.5743 7.29886C40.9028 6.88067 41.2246 6.97717 41.536 7.40009C41.8805 7.86748 42.3282 8.26201 42.7457 8.67358C42.9037 8.82969 43.1006 8.94796 43.2814 9.08136C43.872 9.51753 44.4901 9.92058 45.0457 10.3965C45.608 10.8781 46.1427 11.4022 46.6264 11.9614C47.2 12.6256 47.7802 13.3049 48.2128 14.0599C48.4608 14.4923 48.7268 14.8802 49.0647 15.2302C49.2578 15.4299 49.4717 15.6087 49.6572 15.814C50.0339 16.2312 50.386 16.6712 50.7713 17.0809C51.0619 17.3903 51.396 17.658 51.6951 17.9598C51.909 18.1755 51.9876 18.0611 52.1665 17.8841C52.7514 17.3051 53.3648 16.7516 54.0065 16.2369C54.1097 16.1546 54.4722 16.254 54.6085 16.3826C54.8877 16.6447 55.1073 16.9759 55.3288 17.2928C55.8437 18.0289 56.3511 18.7688 56.848 19.5171C56.9644 19.6931 57.0004 19.923 57.1187 20.0981C57.3591 20.4519 57.6412 20.7783 57.8892 21.1284C58.4533 21.926 58.9758 22.7557 59.573 23.5278C60.2356 24.385 60.9607 25.1939 61.663 26.0208C62.0558 26.4835 62.4382 26.9565 62.8556 27.3956C63.2986 27.861 63.6052 27.827 64.1079 27.4211C64.8708 26.8042 65.6658 26.2271 66.441 25.6244C66.6256 25.4806 66.7799 25.2989 66.9597 25.1494C67.6431 24.5827 68.3549 24.0482 69.0118 23.4521C69.5239 22.9875 69.8864 22.3565 70.5774 22.0935C70.6588 22.0622 70.726 21.9771 70.7847 21.9052C71.2466 21.3422 71.646 20.7112 72.3957 20.4708C72.939 19.5361 73.9565 19.1113 74.6815 18.3676C75.1122 17.9258 75.6489 17.5889 76.1269 17.1925C76.5064 16.8775 76.8652 16.5387 77.2419 16.2208C77.4189 16.0714 77.611 15.9351 77.8089 15.814C78.7876 15.2161 79.0526 15.534 79.6934 16.3296C79.9773 16.6816 80.2433 17.0487 80.5898 17.5047C80.9494 17.1339 81.2372 16.8406 81.5221 16.5444C81.8032 16.254 82.0777 15.9578 82.3626 15.6721C82.7611 15.2719 83.187 14.9142 83.4142 14.3541C83.5335 14.0589 83.9111 13.8801 84.1165 13.6057C84.8255 12.6596 85.5202 11.7031 86.197 10.7333C86.5254 10.2621 86.7961 9.75217 87.1047 9.2668C87.5818 8.51652 88.0806 7.78044 88.5482 7.02448C89.1284 6.08876 89.6925 5.14263 90.251 4.19367C90.4431 3.86725 90.5879 3.5134 90.7706 3.18131C90.9826 2.79623 91.1824 2.74893 91.5373 3.04128C92.1421 3.538 92.7186 4.06972 93.3253 4.56644C93.4228 4.64686 93.7001 4.68376 93.7446 4.62605C94.1668 4.07824 94.569 3.5134 94.9514 2.93721C95.1616 2.62026 95.3196 2.27019 95.5042 1.93621C95.5411 1.86998 95.5818 1.80375 95.6329 1.74887C96.1478 1.20674 96.6656 0.668394 97.1786 0.124371C97.1985 0.103556 97.1691 0.0363809 97.1625 -0.0090332C97.2884 -0.0090332 97.4143 -0.0090332 97.5411 -0.0090332C97.6547 0.344819 97.7702 0.697724 97.88 1.05252C98.0541 1.61736 98.2378 2.17936 98.3921 2.74987C98.5577 3.36391 98.6921 3.98741 98.8436 4.60523C98.8719 4.7216 98.9145 4.83609 98.96 4.94773C99.296 5.77938 99.6386 6.60818 99.969 7.44172C100.219 8.07374 100.442 8.7171 100.7 9.34628C100.877 9.77866 101.132 10.1827 101.279 10.6235C101.553 11.4486 102.12 12.1364 102.324 13.0031C102.428 13.4449 102.798 13.8167 102.987 14.2472C103.316 14.9975 103.829 15.6484 104.078 16.4498C104.232 16.9456 104.651 17.3534 104.876 17.8349C105.207 18.5455 105.695 19.1576 106.017 19.8842C106.454 20.8692 107.095 21.7633 107.658 22.6914C108.076 23.383 108.519 24.0586 108.927 24.7559C109.125 25.0946 109.225 25.4929 109.441 25.8174C110.005 26.6642 110.616 27.4769 111.069 28.3966C111.296 28.8564 111.615 29.2708 111.883 29.7117C112.405 30.5736 112.915 31.4431 113.441 32.3022C113.837 32.9484 114.245 33.587 114.658 34.2219C114.937 34.6514 115.227 35.0734 115.522 35.4916C116.444 36.7991 117.366 38.1076 118.3 39.4066C118.484 39.6612 118.747 39.8589 118.93 40.1143C119.219 40.5174 119.473 40.946 119.738 41.3661C119.796 41.4569 119.834 41.561 119.904 41.7076C120.621 41.1116 121.216 40.6111 121.819 40.12C122.372 39.6687 122.958 39.7737 123.328 40.3793C123.377 40.4587 123.428 40.5373 123.484 40.612C124.219 41.6017 124.989 42.5695 125.683 43.5876C126.355 44.5734 126.945 45.6151 127.585 46.6237C127.684 46.7798 127.859 46.8886 127.999 47.0192V47.7742L128 47.7846ZM96.4299 17.6608C96.5009 17.6192 96.5719 17.5776 96.6429 17.536C96.3381 16.5208 95.9633 15.5198 95.7465 14.4866C95.5269 13.4335 95.3972 12.3512 95.3499 11.2764C95.3026 10.2091 95.4067 9.13529 95.4446 8.06333C95.3887 8.05008 95.3319 8.03684 95.2761 8.02359C95.1379 8.3519 94.9069 8.67263 94.8795 9.00946C94.7744 10.3019 94.7328 11.599 94.6741 12.8943C94.6684 13.0314 94.7214 13.1696 94.729 13.3087C94.7356 13.4288 94.7508 13.6322 94.7006 13.654C94.5596 13.7145 94.34 13.7694 94.234 13.7004C94.0522 13.5811 93.9292 13.3692 93.7891 13.1894C93.4692 12.7807 93.1511 12.3692 92.8369 11.9557C92.5245 11.546 92.2056 11.1411 91.9131 10.7182C91.7171 10.4353 91.5345 10.1647 90.9997 10.1694C91.0915 10.8563 91.2032 11.4949 91.2552 12.1374C91.3423 13.2112 91.3849 14.2888 91.4578 15.3646C91.5165 16.2199 91.5685 17.0761 91.6679 17.9267C91.756 18.6742 91.9121 19.4131 92.0191 20.1586C92.0361 20.275 91.985 20.469 91.9036 20.5134C91.8146 20.5617 91.6452 20.4983 91.525 20.4481C90.8113 20.1482 90.2917 19.6014 89.7512 19.0734C89.6253 18.9504 89.3698 18.9608 89.1738 18.9107C89.1322 19.099 89.0479 19.2882 89.0564 19.4746C89.0725 19.8445 89.1397 20.2126 89.1852 20.5815C89.2997 21.505 89.4313 22.4274 89.5136 23.3537C89.5297 23.5297 89.3508 23.7236 89.2628 23.9091C89.1388 23.8428 88.9684 23.8078 88.8984 23.7047C88.6949 23.4038 88.5406 23.0699 88.3522 22.7586C87.8667 21.9582 87.382 21.1568 86.8804 20.3658C86.4005 19.6089 85.9036 18.8634 85.4038 18.1197C85.3432 18.0298 85.223 17.9797 85.0763 17.8699C85.0489 18.0507 85.0176 18.1651 85.0148 18.2815C84.9523 20.8824 84.8936 23.4833 84.834 26.0842C84.8321 26.1628 84.8529 26.2479 84.8293 26.3189C84.7081 26.6841 84.7214 27.1221 84.2547 27.371C83.9196 27.0445 83.5893 26.7125 83.2467 26.3927C83.0952 26.2507 82.9069 26.1467 82.7583 26.0029C82.337 25.5922 81.9234 25.174 81.5164 24.7502C81.3612 24.5884 81.2429 24.3935 81.0886 24.2298C80.7885 23.911 80.4402 23.63 80.1761 23.2856C79.8373 22.8437 79.5826 22.3338 78.974 22.0433C79.4861 23.946 80.5311 25.508 81.6773 26.9348C82.7611 28.284 84.0664 29.4903 85.5827 30.4629C85.8666 29.7713 86.1478 29.1194 86.4014 28.4581C86.6087 27.9178 86.87 27.3766 86.9514 26.8137C87.0877 25.8638 87.5799 25.0709 87.9386 24.2203C88.0588 23.9365 88.267 23.91 88.4592 24.2043C88.9268 24.9233 89.4086 25.6339 89.8733 26.3539C89.9803 26.5194 90.038 26.7143 90.1298 26.8903C90.4602 27.5195 90.7914 28.1477 91.135 28.7693C91.1663 28.8252 91.2903 28.8299 91.3717 28.8583C91.3963 28.7627 91.4464 28.6653 91.4389 28.5725C91.419 28.3275 91.3499 28.0843 91.3423 27.8393C91.3215 27.1638 91.312 26.4873 91.3158 25.8108C91.3253 24.2818 91.1899 22.7434 91.596 21.1246C91.7787 21.2296 91.9367 21.2911 92.0579 21.3952C92.4337 21.7207 92.7839 22.0764 93.1691 22.3886C93.2884 22.4852 93.49 22.4795 93.6907 22.5296C93.5827 21.8881 93.5013 21.3422 93.3982 20.802C93.224 19.8947 92.9685 18.9968 92.8691 18.0819C92.7384 16.8718 92.7186 15.6484 92.6703 14.4308C92.6646 14.2936 92.8009 14.0258 92.8416 14.0315C93.0697 14.0627 93.3442 14.1006 93.4976 14.2463C93.7683 14.5017 93.9415 14.8565 94.1942 15.1347C94.516 15.4885 94.9003 15.7885 95.2155 16.148C95.6405 16.6334 96.0257 17.1537 96.428 17.6599L96.4299 17.6608ZM58.7117 31.9928C58.7335 32.041 58.7562 32.0883 58.778 32.1366C58.9445 32.1262 59.113 32.1243 59.2787 32.1035C60.157 31.9937 61.0345 31.7875 61.9129 31.7865C63.715 31.7856 65.5172 31.8821 67.3185 31.9616C68.1117 31.9966 68.9039 32.077 69.6943 32.1565C70.1884 32.2057 70.6805 32.2795 71.1699 32.3608C71.8221 32.4687 72.4685 32.6087 73.1216 32.7081C73.9934 32.8415 74.868 32.9569 75.7435 33.0629C75.9972 33.0941 76.2584 33.0676 76.5168 33.0676L76.5594 32.9408C76.4052 32.8046 76.2698 32.6314 76.0919 32.5396C74.9447 31.9417 73.7161 31.5424 72.4487 31.3409C71.4179 31.1772 70.3597 31.1867 69.3128 31.1318C68.9512 31.1129 68.5849 31.1564 68.2262 31.1176C68.0331 31.0968 67.8533 30.9596 67.6327 30.8603C68.2092 30.2765 69.0345 30.3323 69.4728 29.742C68.7174 29.7987 67.9839 29.8895 67.2607 30.0324C66.7032 30.1422 66.1306 30.2548 65.6157 30.4799C65.0118 30.7448 64.4372 31.0448 63.7529 30.9379C63.5096 30.9 63.2721 30.8262 63.0298 30.7789C61.9924 30.5764 60.9474 30.4099 59.9195 30.1677C58.8641 29.9198 57.8068 29.7514 56.724 29.811C55.8522 29.8583 54.9805 29.9198 54.1116 30.0116C53.8219 30.0419 53.5437 30.1838 53.2597 30.2737C53.2616 30.3191 53.2625 30.3654 53.2644 30.4109C53.5881 30.426 53.9137 30.426 54.2356 30.4591C55.3771 30.5745 56.5214 30.6815 57.6582 30.8328C58.1409 30.8972 58.6123 31.059 59.0856 31.1867C59.432 31.2804 59.3061 31.4601 59.1433 31.621C59.008 31.7544 58.8565 31.8698 58.7117 31.9937V31.9928ZM47.7604 18.9362C47.6695 18.5814 47.5853 18.1434 47.4367 17.7271C47.3818 17.5719 47.1906 17.3921 47.0391 17.3675C46.9284 17.3496 46.7097 17.5435 46.6596 17.6854C46.4759 18.2058 46.1863 18.6202 45.7234 18.9324C45.5266 19.0649 45.3836 19.2816 45.2293 19.4708C44.8346 19.9543 44.4513 20.4481 44.0547 20.9307C43.8976 21.1208 43.6969 21.2769 43.5512 21.4747C43.4679 21.5873 43.4546 21.751 43.4092 21.8919C43.4489 21.9014 43.4887 21.9109 43.5284 21.9203C44.9179 20.9401 46.3074 19.9609 47.7613 18.9362H47.7604ZM51.8295 21.7935C52.3842 21.2675 53.3042 21.171 53.6156 20.3601C52.8366 20.6232 52.1475 20.9903 51.8295 21.7935Z" fill="#8C8C8C"/>
</g>
<defs>
<clipPath id="clip0_226_881">
<rect width="128" height="50" fill="white"/>
</clipPath>
</defs>
</svg>
