<svg width="180" height="180" viewBox="0 0 180 180" fill="none" xmlns="http://www.w3.org/2000/svg">
<rect width="180" height="180" rx="14" fill="white"/>
<g clip-path="url(#clip0_248_187)">
<path d="M89.8278 95.9261C97.4647 95.9261 103.656 89.7377 103.656 82.1041C103.656 74.4704 97.4647 68.2821 89.8278 68.2821C82.1909 68.2821 76 74.4704 76 82.1041C76 89.7377 82.1909 95.9261 89.8278 95.9261Z" fill="#FF914D"/>
<path d="M154 112.785C153.469 112.854 153.287 112.558 153.052 112.111C152.583 111.22 151.974 110.416 151.08 109.85C150.433 109.439 149.861 108.909 149.255 108.434C148.889 108.147 148.508 108.129 148.159 108.434C147.803 108.746 147.424 109.033 147.314 109.562C147.278 109.734 146.958 109.963 146.771 109.961C146.493 109.959 146.161 109.835 145.954 109.65C145.592 109.327 145.307 108.919 144.991 108.545C144.636 108.126 144.3 107.689 143.923 107.291C143.651 107.006 143.324 106.773 143.024 106.512C142.873 106.379 142.658 106.264 142.596 106.095C142.294 105.288 141.579 104.84 141.049 104.233C140.912 104.075 140.839 103.861 140.705 103.699C140.405 103.338 140.068 103.009 139.779 102.641C139.098 101.77 138.432 100.887 137.77 100.001C137.455 99.5795 137.171 99.1348 136.858 98.711C136.486 98.2067 136.09 97.7194 135.721 97.2132C135.616 97.0694 135.573 96.8821 135.487 96.7231C135.351 96.4724 135.212 96.2217 135.055 95.9823C134.52 95.1687 133.976 94.3597 133.436 93.5489C133.091 93.0285 132.722 92.5214 132.408 91.9821C131.964 91.2195 131.573 90.4267 131.137 89.6594C130.912 89.2629 130.608 88.911 130.389 88.5117C129.945 87.6999 129.532 86.8711 129.112 86.0461C128.567 84.9741 128.042 83.8918 127.482 82.8274C127.146 82.1887 126.853 81.5406 126.589 80.866C126.274 80.0618 125.786 79.3276 125.398 78.5499C125.256 78.2651 125.193 77.9416 125.082 77.6388C124.961 77.3077 124.827 76.9812 124.698 76.6529C124.633 76.6671 124.57 76.6813 124.506 76.6955C124.506 76.986 124.488 77.2783 124.511 77.5669C124.531 77.811 124.597 78.0513 124.643 78.2935C124.818 79.2273 124.958 80.1687 125.179 81.0922C125.402 82.0288 125.7 82.9475 125.977 83.8709C126.095 84.2645 126.257 84.6449 126.37 85.0404C126.505 85.5096 126.597 85.9912 126.727 86.4624C126.856 86.9317 127 87.3981 127.153 87.8598C127.382 88.5514 127.622 89.2402 127.863 89.9281C128.212 90.9253 128.546 91.9282 128.927 92.914C129.229 93.6965 129.712 94.4288 129.889 95.233C130.075 96.0769 130.417 96.8471 130.675 97.6541C130.719 97.7904 130.604 98.0023 130.508 98.1423C130.481 98.1802 130.226 98.1206 130.129 98.0411C129.682 97.6749 129.254 97.2851 128.819 96.9039C128.784 96.8736 128.735 96.8547 128.708 96.8196C127.995 95.8537 127.287 94.8839 126.574 93.9188C126.187 93.3956 125.765 92.8951 125.405 92.3539C125.19 92.0294 125.095 91.6273 124.896 91.2895C124.148 90.0255 123.386 88.77 122.61 87.523C122.509 87.3622 122.296 87.2704 122.04 87.0717C122.021 87.3849 121.973 87.5731 122.005 87.7453C122.234 88.9753 122.339 90.2308 122.881 91.3955C123.116 91.8998 123.167 92.4873 123.322 93.0304C123.461 93.5139 123.627 93.9888 123.78 94.4676C123.942 94.9728 124.119 95.4752 124.258 95.9871C124.334 96.269 124.25 96.567 123.93 96.5983C123.76 96.6153 123.543 96.4384 123.391 96.3021C123.128 96.0656 122.887 95.8026 122.659 95.532C121.954 94.6984 121.262 93.8535 120.557 93.02C120.412 92.8487 120.231 92.7097 120.017 92.5081C119.969 92.6718 119.923 92.7551 119.923 92.8383C119.926 93.6719 119.873 94.512 119.962 95.3371C120.067 96.3116 120.286 97.2757 120.475 98.2407C120.655 99.1585 120.856 100.072 121.058 100.985C121.293 102.045 121.505 103.107 121.937 104.119C122.277 104.917 122.489 105.767 122.774 106.588C122.844 106.79 123.021 106.956 123.078 107.158C123.149 107.412 123.253 107.683 122.921 107.9C122.567 108.13 122.397 107.911 122.233 107.688C121.919 107.26 121.646 106.8 121.326 106.377C120.868 105.773 120.373 105.195 119.913 104.591C119.789 104.428 119.756 104.197 119.636 104.029C119.261 103.506 118.83 103.02 118.486 102.478C118.01 101.731 117.594 100.945 117.15 100.177C116.964 99.8539 116.736 99.5502 116.587 99.2115C116.422 98.8368 116.373 98.4072 116.191 98.0439C115.773 97.2104 115.304 96.4015 114.853 95.584C114.834 95.5499 114.783 95.5339 114.683 95.4638C114.598 95.8858 114.468 96.2681 114.454 96.6541C114.419 97.6759 114.425 98.6996 114.437 99.7224C114.442 100.122 114.294 100.35 113.888 100.274C113.302 100.165 112.713 100.043 112.146 99.8614C111.303 99.5918 110.476 99.2682 109.647 98.9579C109.433 98.8775 109.238 98.7479 109.024 98.6655C108.896 98.6163 108.751 98.6135 108.613 98.5899C108.588 98.6315 108.563 98.6731 108.538 98.7147C108.848 99.0289 109.144 99.3591 109.472 99.6542C109.99 100.121 110.554 100.52 110.894 101.177C111.095 101.566 111.533 101.828 111.807 102.19C112.342 102.899 112.837 103.637 113.347 104.365C113.647 104.793 113.983 105.199 114.234 105.655C114.708 106.517 115.141 107.401 115.572 108.286C115.831 108.817 116.082 109.355 116.276 109.911C116.331 110.072 116.171 110.308 116.109 110.508C116.048 110.516 115.988 110.523 115.926 110.53C115.622 110.135 115.226 109.781 115.031 109.338C114.713 108.614 114.138 108.118 113.646 107.555C112.7 106.472 111.566 105.586 110.376 104.793C109.397 104.141 108.341 103.603 107.302 103.044C107.055 102.911 106.729 102.932 106.464 102.824C105.521 102.438 104.605 101.978 103.645 101.643C103.003 101.419 102.303 101.362 101.63 101.223C101.361 101.167 101.098 101.085 100.829 101.028C99.9167 100.837 99.0071 100.624 98.0871 100.472C97.1226 100.313 96.1429 100.248 95.1803 100.082C93.0042 99.7044 90.8149 99.974 88.6332 99.9192C87.8882 99.9002 87.1376 100.016 86.3937 100.098C85.3752 100.21 84.3558 100.324 83.343 100.482C82.3246 100.641 81.3156 100.862 80.2999 101.039C79.5067 101.178 78.7041 101.262 77.9166 101.426C77.3345 101.547 76.7722 101.765 76.1977 101.926C75.6496 102.079 75.0978 102.219 74.546 102.357C73.5256 102.614 72.4901 102.822 71.4859 103.133C70.7088 103.374 69.9799 103.762 69.2142 104.047C68.2998 104.387 67.3618 104.662 66.4503 105.008C65.9004 105.217 65.3864 105.518 64.846 105.756C64.1654 106.056 63.4565 106.296 62.7939 106.631C61.8918 107.088 61.0286 107.62 60.137 108.096C59.9278 108.207 59.6401 108.177 59.4366 108.295C58.596 108.783 57.7811 109.315 56.9406 109.803C56.631 109.983 56.2591 110.056 55.9458 110.231C55.3125 110.585 54.7049 110.986 54.0754 111.347C53.7053 111.56 53.304 111.719 52.9348 111.932C52.3518 112.269 51.7971 112.654 51.2074 112.978C50.5004 113.366 49.764 113.701 49.0494 114.078C48.5874 114.322 48.1625 114.648 47.6835 114.846C47.356 114.982 46.9604 115.012 46.6007 114.992C46.2931 114.975 46.3915 114.721 46.4786 114.527C46.9604 113.452 47.7356 112.602 48.5657 111.79C48.861 111.502 49.1005 111.154 49.4081 110.882C50.1208 110.251 50.8449 109.631 51.5917 109.042C52.366 108.431 53.1601 107.84 53.9722 107.281C54.3045 107.053 54.7134 106.938 55.0768 106.753C55.2368 106.672 55.3646 106.53 55.5198 106.435C56.3442 105.933 57.1195 105.274 58.0139 104.982C58.9576 104.673 59.7243 104.086 60.6207 103.726C61.6382 103.319 62.6387 102.868 63.641 102.423C64.014 102.257 64.3576 102.021 64.7371 101.875C65.3003 101.656 65.8862 101.498 66.4551 101.295C67.0305 101.09 67.5909 100.839 68.1702 100.645C69.0864 100.338 70.0131 100.062 70.934 99.7716C71.6742 99.5388 72.4135 99.3004 73.1565 99.0733C73.289 99.0326 73.4433 99.0572 73.5701 99.008C73.6506 98.9768 73.6988 98.8642 73.7613 98.7876C73.6932 98.7337 73.6279 98.6372 73.5569 98.6343C73.2426 98.6201 72.9265 98.6173 72.6132 98.64C72.2582 98.6665 71.9042 98.7214 71.5512 98.7687C70.6766 98.8869 69.801 98.9986 68.9283 99.131C68.1228 99.2531 67.3183 99.3865 66.5185 99.5426C66.2071 99.6041 65.9004 99.7205 65.6089 99.8501C65.2198 100.022 64.863 100.156 64.6084 99.5691C64.8933 99.3288 65.253 99.1017 65.5123 98.7923C66.0679 98.1281 66.9312 97.9995 67.5909 97.5179C68.2024 97.0713 68.8432 96.6588 69.5 96.2832C69.9591 96.0211 70.5128 95.9114 70.9473 95.62C72.1371 94.8233 73.4054 94.1137 74.3188 92.9689C74.741 92.44 75.1243 91.8809 75.5323 91.3406C75.679 91.1467 75.8456 90.9669 76.0027 90.7815L75.9175 90.6329C75.5114 90.7947 75.0817 90.9139 74.7059 91.1277C74.0443 91.5034 73.4291 91.9594 72.7703 92.3397C72.1778 92.6813 71.5625 92.9926 70.9331 93.2603C70.757 93.3351 70.4958 93.213 70.2743 93.1808C70.3273 93.0001 70.3538 92.8062 70.4381 92.6415C70.6804 92.1647 70.917 91.6803 71.2114 91.2365C71.4963 90.808 71.8323 90.4077 72.1797 90.0255C72.8025 89.3396 73.0609 88.4634 73.465 87.664C73.519 87.558 73.5815 87.4568 73.6392 87.3527C73.6127 87.3054 73.5862 87.2571 73.5606 87.2098C73.3089 87.3262 73.0325 87.4085 72.8082 87.5656C71.8966 88.2052 70.9918 88.8551 70.1039 89.5269C69.7726 89.7776 69.5095 90.1163 69.1905 90.3869C68.9823 90.5639 68.7324 90.6954 68.4977 90.8392C68.1238 91.0681 67.7253 91.2195 67.4735 91.6576C67.2795 91.9963 66.9047 92.3095 66.5393 92.4552C65.9685 92.6832 65.6647 93.1506 65.2634 93.5375C64.9974 93.7939 64.6832 93.9992 64.4115 94.2509C64.0253 94.6085 63.6789 95.0116 63.2795 95.3522C62.4617 96.0486 61.7641 96.8518 61.0892 97.6806C60.7068 98.1508 60.3216 98.6211 59.9098 99.0648C59.7887 99.1963 59.5009 99.3534 59.4157 99.2994C59.2548 99.1982 59.0702 98.9295 59.1005 98.7696C59.199 98.2521 59.3391 97.7289 59.5596 97.252C59.8738 96.5727 60.313 95.9502 60.6254 95.2699C61.0409 94.3682 61.7319 93.6709 62.3026 92.8866C62.8336 92.1562 63.446 91.4844 64.0026 90.7711C64.1455 90.5875 64.1739 90.3141 64.3197 90.1343C65.2823 88.9469 65.9657 87.5921 66.703 86.2675C66.9312 85.8569 67.2217 85.4803 67.4688 85.0791C67.5199 84.9959 67.5019 84.871 67.5161 84.765C67.4016 84.7896 67.2691 84.7858 67.1754 84.8436C66.9179 85.0035 66.687 85.205 66.4267 85.3601C66.2714 85.4529 66.0859 85.5276 65.907 85.5437C65.4177 85.5882 65.3741 85.485 65.4773 85.0054C65.641 84.2428 65.7442 83.4688 65.8957 82.7034C65.961 82.3761 66.0859 82.0601 66.1777 81.7374C66.2118 81.6163 66.2288 81.4905 66.2534 81.3675C66.2118 81.3457 66.1702 81.323 66.1285 81.3013C66.0253 81.4148 65.9118 81.5208 65.8209 81.6438C65.2407 82.429 64.6595 83.2143 64.0944 84.01C63.9505 84.2134 63.8871 84.4736 63.7461 84.6799C63.5322 84.9931 63.2813 85.2826 63.0476 85.5825C62.8412 85.8465 62.544 86.083 62.4503 86.382C62.2051 87.1635 61.5265 87.6025 61.0977 88.2345C60.5714 89.0113 60.0225 89.7899 59.376 90.4655C58.702 91.1703 58.2789 92.0918 57.3807 92.616C57.022 92.8251 56.8497 93.337 56.5591 93.6813C56.3745 93.8999 56.1228 94.0598 55.9098 94.2556C55.6826 94.4638 55.4725 94.6909 55.2415 94.8943C54.8289 95.2585 54.4058 95.6124 53.9864 95.9691C53.9155 96.0296 53.8293 96.075 53.7697 96.1441C53.0191 97.0136 52.1066 97.6702 51.1156 98.2445C50.5789 98.5558 50.1407 99.0364 49.6021 99.3439C48.6584 99.8842 47.6797 100.367 46.7001 100.843C46.2543 101.059 45.7781 101.22 45.303 101.366C45.2027 101.397 44.9963 101.284 44.9263 101.179C44.612 100.708 44.329 100.215 43.9883 99.6542C43.7034 100.024 43.3049 100.337 43.2074 100.725C43.1089 101.116 42.8373 101.305 42.6338 101.552C41.4989 102.934 40.3101 104.269 38.9073 105.394C37.8652 106.23 36.8155 107.056 35.761 107.876C35.5831 108.015 35.3597 108.094 35.1685 108.218C34.7359 108.499 34.3223 108.812 33.8784 109.074C33.0729 109.549 32.2485 109.993 31.4364 110.457C30.8864 110.772 30.3535 111.118 29.796 111.42C29.0577 111.82 28.2787 112.148 27.566 112.585C27.2073 112.805 26.8807 113.016 26.4633 112.918C26.292 112.877 26.1008 112.74 26.0156 112.592C25.9645 112.503 26.0667 112.275 26.1632 112.165C26.2882 112.023 26.4803 111.942 26.6375 111.825C27.0662 111.507 27.4742 111.158 27.9209 110.87C28.8164 110.292 29.7705 109.799 30.629 109.173C31.5159 108.526 32.3261 107.774 33.1534 107.048C33.9163 106.38 34.6006 105.606 35.4269 105.033C35.9929 104.64 36.2362 104.049 36.6915 103.608C36.8637 103.442 37.0672 103.305 37.2319 103.132C37.4705 102.881 37.6986 102.618 37.9078 102.342C38.0564 102.147 38.1217 101.869 38.3015 101.722C39.2651 100.928 39.815 99.8274 40.5117 98.8349C40.7417 98.5075 41.0162 98.2095 41.2197 97.867C41.4052 97.5557 41.4979 97.1896 41.6759 96.8726C41.9428 96.3967 42.2296 95.9293 42.5552 95.4922C42.6158 95.4109 42.9632 95.4203 43.0654 95.5121C43.5746 95.9681 44.0498 96.4611 44.5278 96.9512C44.772 97.2009 44.984 97.4819 45.2311 97.7289C45.4308 97.9285 45.6608 97.9768 45.8898 97.7459C46.1975 97.4346 46.5041 97.1205 46.825 96.8225C47.0531 96.6106 47.2737 96.356 47.5491 96.2368C48.0735 96.0088 48.4029 95.6332 48.6982 95.163C48.8705 94.8886 49.1866 94.706 49.4346 94.477C49.7384 94.196 50.0423 93.915 50.3395 93.6274C50.6376 93.3388 50.9443 93.0569 51.2188 92.7466C51.5151 92.4126 51.7782 92.0512 52.0555 91.7002C52.1767 91.5469 52.2817 91.3804 52.4152 91.2403C52.7948 90.8458 53.2661 90.5137 53.5548 90.0633C54.2155 89.034 55.1261 88.208 55.7934 87.1871C56.0963 86.7245 56.4796 86.3148 56.808 85.8682C57.0892 85.486 57.3315 85.0754 57.6145 84.695C58.0404 84.1217 58.4948 83.571 58.9207 82.9986C59.4612 82.271 59.9922 81.535 60.5137 80.7932C60.8639 80.2955 61.1801 79.7733 61.5322 79.2765C61.7792 78.9284 62.0764 78.6162 62.3206 78.267C62.4834 78.0343 62.5667 77.7476 62.7295 77.5158C62.952 77.1979 63.2321 76.9207 63.4584 76.6056C64.0196 75.8251 64.5563 75.0275 65.1176 74.2469C65.5909 73.5884 66.0736 72.9356 66.5743 72.2989C66.9028 71.8807 67.2246 71.9772 67.536 72.4001C67.8805 72.8675 68.3282 73.262 68.7457 73.6736C68.9037 73.8297 69.1006 73.948 69.2814 74.0814C69.872 74.5175 70.4901 74.9206 71.0457 75.3965C71.608 75.8781 72.1427 76.4022 72.6264 76.9614C73.2 77.6256 73.7802 78.3049 74.2128 79.0599C74.4608 79.4923 74.7268 79.8802 75.0647 80.2302C75.2578 80.4299 75.4717 80.6087 75.6572 80.814C76.0339 81.2312 76.386 81.6712 76.7713 82.0809C77.0619 82.3903 77.396 82.658 77.6951 82.9598C77.909 83.1755 77.9876 83.0611 78.1665 82.8841C78.7514 82.3051 79.3648 81.7516 80.0065 81.2369C80.1097 81.1546 80.4722 81.254 80.6085 81.3826C80.8877 81.6447 81.1073 81.9759 81.3288 82.2928C81.8437 83.0289 82.3511 83.7688 82.848 84.5171C82.9644 84.6931 83.0004 84.923 83.1187 85.0981C83.3591 85.4519 83.6412 85.7783 83.8892 86.1284C84.4533 86.926 84.9758 87.7557 85.573 88.5278C86.2356 89.385 86.9607 90.1939 87.663 91.0208C88.0558 91.4835 88.4382 91.9565 88.8556 92.3956C89.2986 92.861 89.6052 92.827 90.1079 92.4211C90.8708 91.8042 91.6658 91.2271 92.441 90.6244C92.6256 90.4806 92.7799 90.2989 92.9597 90.1494C93.6431 89.5827 94.3549 89.0482 95.0118 88.4521C95.5239 87.9875 95.8864 87.3565 96.5774 87.0935C96.6588 87.0622 96.726 86.9771 96.7847 86.9052C97.2466 86.3422 97.646 85.7112 98.3957 85.4708C98.939 84.5361 99.9565 84.1113 100.682 83.3676C101.112 82.9258 101.649 82.5889 102.127 82.1925C102.506 81.8775 102.865 81.5387 103.242 81.2208C103.419 81.0714 103.611 80.9351 103.809 80.814C104.788 80.2161 105.053 80.534 105.693 81.3296C105.977 81.6816 106.243 82.0487 106.59 82.5047C106.949 82.1339 107.237 81.8406 107.522 81.5444C107.803 81.254 108.078 80.9578 108.363 80.6721C108.761 80.2719 109.187 79.9142 109.414 79.3541C109.533 79.0589 109.911 78.8801 110.117 78.6057C110.825 77.6596 111.52 76.7031 112.197 75.7333C112.525 75.2621 112.796 74.7522 113.105 74.2668C113.582 73.5165 114.081 72.7804 114.548 72.0245C115.128 71.0888 115.693 70.1426 116.251 69.1937C116.443 68.8673 116.588 68.5134 116.771 68.1813C116.983 67.7962 117.182 67.7489 117.537 68.0413C118.142 68.538 118.719 69.0697 119.325 69.5664C119.423 69.6469 119.7 69.6838 119.745 69.626C120.167 69.0782 120.569 68.5134 120.951 67.9372C121.162 67.6203 121.32 67.2702 121.504 66.9362C121.541 66.87 121.582 66.8037 121.633 66.7489C122.148 66.2067 122.666 65.6684 123.179 65.1244C123.198 65.1036 123.169 65.0364 123.163 64.991C123.288 64.991 123.414 64.991 123.541 64.991C123.655 65.3448 123.77 65.6977 123.88 66.0525C124.054 66.6174 124.238 67.1794 124.392 67.7499C124.558 68.3639 124.692 68.9874 124.844 69.6052C124.872 69.7216 124.915 69.8361 124.96 69.9477C125.296 70.7794 125.639 71.6082 125.969 72.4417C126.219 73.0737 126.442 73.7171 126.7 74.3463C126.877 74.7787 127.132 75.1827 127.279 75.6235C127.553 76.4486 128.12 77.1364 128.324 78.0031C128.428 78.4449 128.798 78.8167 128.987 79.2472C129.316 79.9975 129.829 80.6484 130.078 81.4498C130.232 81.9456 130.651 82.3534 130.876 82.8349C131.207 83.5455 131.695 84.1576 132.017 84.8842C132.454 85.8692 133.095 86.7633 133.658 87.6914C134.076 88.383 134.519 89.0586 134.927 89.7559C135.125 90.0946 135.225 90.4929 135.441 90.8174C136.005 91.6642 136.616 92.4769 137.069 93.3966C137.296 93.8564 137.615 94.2708 137.883 94.7117C138.405 95.5736 138.915 96.4431 139.441 97.3022C139.837 97.9484 140.245 98.587 140.658 99.2219C140.937 99.6514 141.227 100.073 141.522 100.492C142.444 101.799 143.366 103.108 144.3 104.407C144.484 104.661 144.747 104.859 144.93 105.114C145.219 105.517 145.473 105.946 145.738 106.366C145.796 106.457 145.834 106.561 145.904 106.708C146.621 106.112 147.216 105.611 147.819 105.12C148.372 104.669 148.958 104.774 149.328 105.379C149.377 105.459 149.428 105.537 149.484 105.612C150.219 106.602 150.989 107.57 151.683 108.588C152.355 109.573 152.945 110.615 153.585 111.624C153.684 111.78 153.859 111.889 153.999 112.019V112.774L154 112.785ZM122.43 82.6608C122.501 82.6192 122.572 82.5776 122.643 82.536C122.338 81.5208 121.963 80.5198 121.747 79.4866C121.527 78.4335 121.397 77.3512 121.35 76.2764C121.303 75.2091 121.407 74.1353 121.445 73.0633C121.389 73.0501 121.332 73.0368 121.276 73.0236C121.138 73.3519 120.907 73.6726 120.879 74.0095C120.774 75.3019 120.733 76.599 120.674 77.8943C120.668 78.0314 120.721 78.1696 120.729 78.3087C120.736 78.4288 120.751 78.6322 120.701 78.654C120.56 78.7145 120.34 78.7694 120.234 78.7004C120.052 78.5811 119.929 78.3692 119.789 78.1894C119.469 77.7807 119.151 77.3692 118.837 76.9557C118.525 76.546 118.206 76.1411 117.913 75.7182C117.717 75.4353 117.534 75.1647 117 75.1694C117.091 75.8563 117.203 76.4949 117.255 77.1374C117.342 78.2112 117.385 79.2888 117.458 80.3646C117.516 81.2199 117.569 82.0761 117.668 82.9267C117.756 83.6741 117.912 84.4131 118.019 85.1586C118.036 85.275 117.985 85.469 117.904 85.5134C117.815 85.5617 117.645 85.4983 117.525 85.4481C116.811 85.1482 116.292 84.6014 115.751 84.0734C115.625 83.9504 115.37 83.9608 115.174 83.9107C115.132 84.099 115.048 84.2882 115.056 84.4746C115.073 84.8445 115.14 85.2126 115.185 85.5815C115.3 86.505 115.431 87.4274 115.514 88.3537C115.53 88.5297 115.351 88.7236 115.263 88.9091C115.139 88.8428 114.968 88.8078 114.898 88.7047C114.695 88.4038 114.541 88.0699 114.352 87.7586C113.867 86.9582 113.382 86.1568 112.88 85.3658C112.4 84.6089 111.904 83.8634 111.404 83.1197C111.343 83.0298 111.223 82.9797 111.076 82.8699C111.049 83.0507 111.018 83.1651 111.015 83.2815C110.952 85.8824 110.894 88.4833 110.834 91.0842C110.832 91.1627 110.853 91.2479 110.829 91.3189C110.708 91.6841 110.721 92.1221 110.255 92.371C109.92 92.0445 109.589 91.7125 109.247 91.3927C109.095 91.2507 108.907 91.1467 108.758 91.0029C108.337 90.5922 107.923 90.174 107.516 89.7502C107.361 89.5884 107.243 89.3935 107.089 89.2298C106.789 88.911 106.44 88.63 106.176 88.2856C105.837 87.8437 105.583 87.3338 104.974 87.0433C105.486 88.946 106.531 90.508 107.677 91.9348C108.761 93.284 110.066 94.4903 111.583 95.4629C111.867 94.7713 112.148 94.1194 112.401 93.4581C112.609 92.9178 112.87 92.3766 112.951 91.8137C113.088 90.8638 113.58 90.0709 113.939 89.2203C114.059 88.9365 114.267 88.91 114.459 89.2043C114.927 89.9233 115.409 90.6339 115.873 91.3539C115.98 91.5194 116.038 91.7143 116.13 91.8903C116.46 92.5195 116.791 93.1477 117.135 93.7693C117.166 93.8252 117.29 93.8299 117.372 93.8583C117.396 93.7627 117.446 93.6653 117.439 93.5725C117.419 93.3275 117.35 93.0843 117.342 92.8393C117.321 92.1638 117.312 91.4873 117.316 90.8108C117.325 89.2818 117.19 87.7434 117.596 86.1246C117.779 86.2296 117.937 86.2911 118.058 86.3952C118.434 86.7207 118.784 87.0764 119.169 87.3886C119.288 87.4852 119.49 87.4795 119.691 87.5296C119.583 86.8881 119.501 86.3422 119.398 85.802C119.224 84.8947 118.968 83.9968 118.869 83.0819C118.738 81.8718 118.719 80.6484 118.67 79.4308C118.665 79.2936 118.801 79.0258 118.842 79.0315C119.07 79.0627 119.344 79.1006 119.498 79.2463C119.768 79.5017 119.941 79.8565 120.194 80.1347C120.516 80.4885 120.9 80.7885 121.216 81.148C121.641 81.6334 122.026 82.1537 122.428 82.6599L122.43 82.6608ZM84.7117 96.9928C84.7335 97.041 84.7562 97.0883 84.778 97.1366C84.9445 97.1262 85.113 97.1243 85.2787 97.1035C86.157 96.9937 87.0345 96.7875 87.9129 96.7865C89.715 96.7856 91.5172 96.8821 93.3185 96.9616C94.1117 96.9966 94.9039 97.077 95.6943 97.1565C96.1884 97.2057 96.6806 97.2795 97.1699 97.3608C97.8221 97.4687 98.4685 97.6087 99.1216 97.7081C99.9934 97.8415 100.868 97.9569 101.744 98.0629C101.997 98.0941 102.258 98.0676 102.517 98.0676L102.559 97.9408C102.405 97.8046 102.27 97.6314 102.092 97.5397C100.945 96.9417 99.7161 96.5424 98.4487 96.3409C97.4179 96.1772 96.3597 96.1867 95.3128 96.1318C94.9512 96.1129 94.5849 96.1564 94.2262 96.1176C94.0331 96.0968 93.8533 95.9596 93.6327 95.8603C94.2092 95.2765 95.0345 95.3323 95.4728 94.742C94.7174 94.7987 93.9839 94.8895 93.2607 95.0324C92.7032 95.1422 92.1306 95.2548 91.6157 95.4799C91.0118 95.7448 90.4372 96.0448 89.7529 95.9379C89.5096 95.9 89.2721 95.8262 89.0298 95.7789C87.9924 95.5764 86.9474 95.4099 85.9195 95.1677C84.8641 94.9198 83.8068 94.7514 82.724 94.811C81.8522 94.8583 80.9805 94.9198 80.1116 95.0116C79.8219 95.0419 79.5437 95.1838 79.2597 95.2737C79.2616 95.3191 79.2625 95.3654 79.2644 95.4109C79.5881 95.426 79.9137 95.426 80.2356 95.4591C81.3771 95.5745 82.5214 95.6815 83.6582 95.8328C84.1409 95.8972 84.6123 96.059 85.0856 96.1867C85.432 96.2804 85.3061 96.4601 85.1433 96.621C85.008 96.7544 84.8565 96.8698 84.7117 96.9937V96.9928ZM73.7604 83.9362C73.6695 83.5814 73.5853 83.1434 73.4367 82.7271C73.3818 82.5719 73.1906 82.3921 73.0391 82.3675C72.9284 82.3496 72.7097 82.5435 72.6596 82.6854C72.4759 83.2058 72.1863 83.6202 71.7234 83.9324C71.5266 84.0649 71.3836 84.2816 71.2293 84.4708C70.8346 84.9543 70.4513 85.4481 70.0547 85.9307C69.8976 86.1208 69.6969 86.2769 69.5512 86.4747C69.4679 86.5873 69.4546 86.751 69.4092 86.8919C69.4489 86.9014 69.4887 86.9109 69.5284 86.9203C70.9179 85.9401 72.3074 84.9609 73.7613 83.9362H73.7604ZM77.8295 86.7935C78.3842 86.2675 79.3042 86.171 79.6156 85.3601C78.8366 85.6232 78.1475 85.9903 77.8295 86.7935Z" fill="#8C8C8C"/>
</g>
<defs>
<clipPath id="clip0_248_187">
<rect width="128" height="50" fill="white" transform="translate(26 65)"/>
</clipPath>
</defs>
</svg>
